<svg height="237.112257" viewBox="0 0 450 253.47675" width="421.741168" xmlns="http://www.w3.org/2000/svg"><g transform="matrix(.56278139 0 0 .56278139 -56.672086 -154.37093)"><path clip-rule="evenodd" d="m259.10001 274.29999h478.29999v256.70001h-478.29999z" fill="#00b6eb" fill-rule="evenodd"/><path d="m682 491c-5 .6-8.4 5.2-7.8 10.2s5.3 8.6 10.3 7.8c5-.7 8.3-5.1 7.6-10.2-.5-5-5.1-8.4-10.1-7.8" fill="#fff"/><path d="m492.2 384.5c-5 .6-8.4 5.2-7.8 10.2s5.3 8.6 10.3 7.8c5-.7 8.2-5.1 7.7-10.2-.6-5-5.2-8.4-10.2-7.8" fill="#fff"/><path d="m517.7 384.5c-5 .6-8.4 5.2-7.8 10.2s5.3 8.6 10.3 7.8c5-.7 8.2-5.1 7.7-10.2-.6-5-5.2-8.4-10.2-7.8" fill="#fff"/><path d="m404 426.3h53.5v-11.1h-65.9v63.4h68.3v-11.1h-55.9v-16.3-11.1z" fill="#fff"/><path d="m543.6 424c-6.7-5.9-15.7-8.8-26.8-8.8h-41v63.4h43.1c5.1 0 10-.9 14.7-2.6 4.4-1.6 7.5-3.4 9.5-5.7 7.1-7.6 10.6-15.6 10.6-23.9 0-9.1-3.4-16.6-10.1-22.4m-9 37.7c-3.9 3.8-8.8 5.7-14.9 5.7h-31.5v-41.1h29.6c6.9 0 12.4 1.9 16.5 5.7s6.2 8.9 6.2 15.2c-.1 5.9-2 10.8-5.9 14.5z" fill="#fff"/><path d="m703.1 424c-6.7-5.9-15.7-8.8-26.8-8.8h-28.6v11.1h29.5c6.9 0 12.4 1.9 16.5 5.8 4.1 3.8 6.2 8.9 6.2 15.2 0 5.9-1.9 10.7-5.8 14.5s-8.8 5.7-14.9 5.7h-53.4c5.4-6.8 8.1-13.7 8.1-21 0-9.1-3.4-16.6-10.1-22.5s-15.7-8.8-26.8-8.8h-28.6v11.1h29.6c6.9 0 12.4 1.9 16.5 5.8 4.1 3.8 6.2 8.9 6.2 15.2 0 5.9-1.9 10.7-5.8 14.5s-8.8 5.7-14.9 5.7h-31.5v11.1h30.7 79.3c5.1 0 10-.9 14.7-2.6 4.3-1.6 7.5-3.5 9.5-5.6 7.1-7.6 10.6-15.6 10.6-23.9-.1-9.2-3.5-16.7-10.2-22.5" fill="#fff"/><path d="m572.4 308.3 48.6 11.8h70.8z" fill="#fff"/><path d="m357.7 457.9c0 4.2-1.3 7.1-3.9 8.8s-6.9 2.6-12.8 2.6c-5.4 0-9.3-.9-11.8-2.7s-4-4.9-4.5-9.3h-12.5c1 15.4 10.4 23.1 28.2 23.1 9.7 0 17-1.9 22-5.8s7.5-9.4 7.5-16.7v-42.7h-12.4v42.7z" fill="#fff"/><path d="m321.3 435.9c-8.5-5.8-14.7-14.5-14.7-25.4 0-5.2 1.4-10.8 4.1-16.6 8-16.6 27.5-27.9 52.5-37.1 25.1-9.1 56.2-15.6 88.1-20.4 63.8-9.5 130.8-10.5 158.1-10.5v-1.3 10.7c-40.1-.1-170.4 5.4-242.6 31.6-24.1 8.6-41.2 19.8-46.5 31.6-2.2 4.7-3.1 8.7-3.1 12.1 0 6.8 3.4 11.8 10.1 16.6 6.7 4.7 16.6 8.3 27.5 10.8 21.9 5.1 47.9 5.9 61.9 5.9 6.4 0 10.3-.2 10.3-.2v10.7c-.1 0-3.7.2-10.3.2-21.7-.2-70-1.4-95.4-18.7" fill="#e2e1e0"/><path d="m576.6 319.2c-33.2 1.3-80 4.4-125.2 11.2-31.9 4.8-63 11.3-88.1 20.4-25 9.2-44.5 20.5-52.5 37.1-2.7 5.8-4.1 11.4-4.1 16.6 0 1.3.1 2.5.2 3.7.5-4.1 1.8-8.4 3.8-12.9 8-16.6 27.5-27.9 52.5-37.1 25.1-9.1 56.2-15.6 88.1-20.4 63.8-9.5 130.8-11.9 158.1-11.9 2.1-.1-32.8-6.7-32.8-6.7" fill="#fff"/><path d="m621 320.1v15.2l70.8-15.2z" fill="#e2e1e0"/><g fill="#002b60"><path d="m111.1 714.2h-5v-36.7h5v19.9l13.7-19.9h5.5l-10.9 15.9 12.5 20.8h-5.5l-10.4-16.9-4.9 6.9z"/><path d="m139.5 677.2c.8 0 1.5.3 2.1.9s.9 1.3.9 2.1-.3 1.5-.9 2.1-1.3.9-2.1.9-1.5-.3-2.1-.9-.9-1.3-.9-2.1.3-1.5.8-2.1c.7-.6 1.3-.9 2.2-.9m-2.6 37v-22.8h-3.7v-4h8.4v26.8z"/><path d="m165 714.2v-15.6c0-2.8-.4-4.8-1.3-6-.9-1.1-2.3-1.7-4.3-1.7-1.1 0-2.2.3-3.4 1-1.2.6-2.1 1.4-2.7 2.4v19.9h-4.8v-26.8h3.3l1.5 3.4c1.6-2.6 4.1-4 7.7-4 5.9 0 8.8 3.6 8.8 10.7v16.6h-4.8z"/><path d="m174.8 721.5 2.6-3.8c2.8 1.8 5.3 2.8 7.7 2.8 2.2 0 3.9-.4 5.1-1.1s1.9-1.7 1.9-2.8c0-2.2-1.6-3.3-4.7-3.3-.5 0-1.5.1-2.9.4s-2.5.4-3.3.4c-3.8 0-5.7-1.4-5.7-4.3 0-.9.5-1.7 1.3-2.4.9-.7 2-1.2 3.3-1.6-3.8-1.8-5.7-4.8-5.7-9.2 0-2.8 1-5.2 2.9-7 2-1.9 4.4-2.8 7.2-2.8 2.6 0 4.7.5 6.2 1.6l2.4-2.9 3.1 2.9-2.8 2.2c1.2 1.6 1.8 3.7 1.8 6.2 0 2.7-.8 5-2.5 6.8s-3.9 2.9-6.6 3.1l-3.9.4c-.5 0-1.1.2-1.9.5s-1.2.7-1.2 1.2c0 .7.8 1 2.5 1 .7 0 1.8-.1 3.4-.4 1.5-.2 2.6-.4 3.4-.4 2.6 0 4.7.6 6.2 1.9s2.2 3 2.2 5.3c0 2.5-1.1 4.5-3.3 6s-5 2.3-8.4 2.3c-1.7 0-3.6-.3-5.5-.9-2.1-.5-3.7-1.2-4.8-2.1m10.1-30.8c-1.6 0-3 .6-4 1.7-1 1.2-1.6 2.6-1.6 4.3 0 1.9.5 3.4 1.5 4.6s2.4 1.8 4.1 1.8 3-.6 4-1.8 1.4-2.8 1.4-4.7c0-1.7-.5-3.1-1.5-4.3-1.1-1-2.4-1.6-3.9-1.6z"/><path d="m236.7 714.2-2.5-7.7h-13.6l-2.7 7.7h-5.6l14.9-37.2h1.3l13.8 37.2zm-9.1-27.6-5.7 16.1h10.9z"/><path d="m249.1 712.2-1.7 2.4h-2.4v-38.3h4.8v13c.5-.6 1.3-1.2 2.5-1.7s2.5-.8 3.7-.8c3.7 0 6.6 1.3 8.9 3.8s3.4 5.7 3.4 9.6c0 4.5-1.1 8-3.4 10.5-2.3 2.6-5.4 3.9-9.3 3.9-1.3 0-2.5-.2-3.7-.7-1.2-.4-2.2-1-2.8-1.7m.7-19.3v15.5c0 .3.6.7 1.8 1.3s2.1.9 2.7.9c3.2 0 5.6-.8 7-2.3s2.1-4.1 2.1-7.8c0-3-.8-5.4-2.5-7.1-1.6-1.7-3.8-2.5-6.6-2.5-.6 0-1.4.2-2.4.7-1.1.5-1.8.9-2.1 1.3z"/><path d="m289.9 714.1v-2c-1.7 1.7-4.1 2.5-7.2 2.5-3.3 0-6.1-1.2-8.2-3.6s-3.1-5.6-3.1-9.6 1.2-7.5 3.6-10.3 5.3-4.3 8.6-4.3c2.8 0 4.9.7 6.3 2v-12.4h4.8v37.8h-4.8zm0-20.6c-1.2-1.8-2.8-2.7-4.9-2.7-2.6 0-4.6.9-6.2 2.9-1.6 1.9-2.4 4.3-2.4 7.3 0 6.5 2.9 9.7 8.8 9.7.8 0 1.6-.2 2.7-.7s1.7-1 2-1.5z"/><path d="m305.2 687.3v17.1c0 4.1 1.8 6.2 5.4 6.2 1.6 0 3-.4 4.3-1.3s2.2-1.9 2.6-3.1v-18.8h4.8v26.8h-4.8v-3.7c-.5 1-1.6 2-3.2 2.9s-3.2 1.3-4.7 1.3c-2.9 0-5.2-.8-6.8-2.5s-2.3-4.1-2.3-7.2v-17.6h4.7z"/><path d="m328.4 706.6v-30.2h4.8v29.4c0 1.4.4 2.6 1.2 3.4s1.9 1.2 3.2 1.2v4.3c-6.1 0-9.2-2.7-9.2-8.1"/><path d="m357.6 711.1c-1.9 2.4-4.8 3.6-8.7 3.6-2.1 0-3.9-.8-5.5-2.3-1.5-1.5-2.3-3.4-2.3-5.7 0-2.7 1.2-5 3.6-6.9s5.4-2.8 9.1-2.8c1 0 2.1.2 3.4.7 0-4.3-1.9-6.5-5.8-6.5-3 0-5.3.8-6.9 2.4l-2-4c.9-.7 2.2-1.4 3.7-1.9 1.6-.5 3.1-.8 4.6-.8 3.9 0 6.7.9 8.5 2.7s2.6 4.6 2.6 8.4v9.6c0 2.4.7 3.9 2.1 4.7v2.4c-1.9 0-3.4-.3-4.3-.8-1-.6-1.7-1.5-2.1-2.8m-.5-10.1c-1.5-.3-2.6-.5-3.2-.5-2.4 0-4.4.6-5.9 1.9-1.5 1.2-2.3 2.7-2.3 4.4 0 2.8 1.6 4.2 4.9 4.2 2.4 0 4.5-1.1 6.4-3.4v-6.6z"/><path d="m366.3 714.2v-1.3l15.2-21.3h-15v-4.3h22v1.4l-14.8 21.2h14.9v4.3z"/><path d="m397.2 677.2c.8 0 1.5.3 2.1.9s.9 1.3.9 2.1-.3 1.5-.9 2.1-1.3.9-2.1.9-1.5-.3-2.1-.9-.9-1.3-.9-2.1.3-1.5.8-2.1c.7-.6 1.4-.9 2.2-.9m-2.6 37v-22.8h-3.7v-4h8.4v26.8z"/><path d="m403.8 714.2v-1.3l15.3-21.3h-15v-4.3h21.9v1.4l-14.7 21.2h14.8v4.3z"/><path d="m445.79999 677.5h5v36.700001h-5z"/><path d="m474.6 714.2v-15.6c0-2.8-.4-4.8-1.3-6-.9-1.1-2.3-1.7-4.3-1.7-1.1 0-2.2.3-3.4 1-1.2.6-2.1 1.4-2.7 2.4v19.9h-4.8v-26.8h3.3l1.5 3.4c1.6-2.6 4.1-4 7.7-4 5.9 0 8.8 3.6 8.8 10.7v16.6h-4.8z"/><path d="m487.1 691.1h-3.1v-3.8h3.1v-5.6l4.8-1.8v7.4h7.4v3.8h-7.4v13.3c0 2.3.4 3.9 1.1 4.8.8.9 2 1.4 3.7 1.4 1.2 0 2.5-.3 3.8-.9l.7 4.2c-2 .5-4.1.8-6.5.8-2.1 0-3.9-.8-5.4-2.4s-2.2-3.6-2.2-6z"/><path d="m527.6 701.2h-19.3c0 3.1.9 5.5 2.6 7.2 1.5 1.5 3.5 2.2 5.9 2.2 2.7 0 5-.8 6.8-2.4l2 3.4c-.7.7-1.9 1.4-3.4 1.9-1.9.7-4 1.1-6.4 1.1-3.4 0-6.2-1.1-8.6-3.4-2.6-2.5-3.9-5.9-3.9-10.2 0-4.4 1.3-8 4-10.6 2.4-2.4 5.2-3.6 8.5-3.6 3.8 0 6.8 1.1 9 3.2 2.1 2.1 3.2 4.8 3.2 8.2 0 1.2-.2 2.1-.4 3m-11.6-10.4c-2.1 0-3.9.7-5.3 2s-2.2 2.9-2.3 4.9h14.9c0-1.9-.6-3.5-1.8-4.8-1.4-1.4-3.2-2.1-5.5-2.1z"/><path d="m546.8 691.9c-1-.7-2.1-1.1-3.1-1.1-1.7 0-3.1.8-4.4 2.3-1.3 1.6-1.9 3.4-1.9 5.6v15.4h-4.8v-26.8h4.8v4.3c1.7-3.2 4.3-4.8 7.7-4.8.8 0 2.1.2 3.7.4z"/><path d="m568 714.2v-15.6c0-2.8-.4-4.8-1.3-6-.9-1.1-2.3-1.7-4.3-1.7-1.1 0-2.2.3-3.4 1-1.2.6-2.1 1.4-2.7 2.4v19.9h-4.8v-26.8h3.3l1.5 3.4c1.6-2.6 4.1-4 7.7-4 5.9 0 8.8 3.6 8.8 10.7v16.6h-4.8z"/><path d="m593.9 711.1c-1.9 2.4-4.8 3.6-8.7 3.6-2.1 0-3.9-.8-5.5-2.3-1.5-1.5-2.3-3.4-2.3-5.7 0-2.7 1.2-5 3.6-6.9s5.4-2.8 9.1-2.8c1 0 2.1.2 3.4.7 0-4.3-1.9-6.5-5.8-6.5-3 0-5.3.8-6.9 2.4l-2-4c.9-.7 2.1-1.4 3.7-1.9s3.1-.8 4.6-.8c3.9 0 6.7.9 8.5 2.7s2.6 4.6 2.6 8.4v9.6c0 2.4.7 3.9 2.1 4.7v2.4c-1.9 0-3.4-.3-4.3-.8-1-.6-1.7-1.5-2.1-2.8m-.4-10.1c-1.5-.3-2.6-.5-3.2-.5-2.4 0-4.4.6-5.9 1.9-1.5 1.2-2.3 2.7-2.3 4.4 0 2.8 1.6 4.2 4.9 4.2 2.4 0 4.5-1.1 6.4-3.4v-6.6z"/><path d="m606.7 691.1h-3.1v-3.8h3.1v-5.6l4.8-1.8v7.4h7.4v3.8h-7.4v13.3c0 2.3.4 3.9 1.2 4.8s2 1.4 3.6 1.4c1.2 0 2.5-.3 3.8-.9l.7 4.2c-2 .5-4.1.8-6.5.8-2.1 0-3.9-.8-5.4-2.4-1.4-1.6-2.2-3.6-2.2-6z"/><path d="m629.5 677.2c.8 0 1.5.3 2.1.9s.9 1.3.9 2.1-.3 1.5-.9 2.1-1.3.9-2.1.9-1.5-.3-2.1-.9-.9-1.3-.9-2.1.3-1.5.8-2.1c.7-.6 1.4-.9 2.2-.9m-2.6 37v-22.8h-3.7v-4h8.4v26.8z"/><path d="m636.7 700.7c0-4.1 1.1-7.5 3.3-10s5.2-3.8 8.8-3.8c3.8 0 6.8 1.2 8.9 3.7s3.2 5.8 3.2 10.2c0 4.3-1.1 7.7-3.3 10.2s-5.1 3.8-8.9 3.8-6.8-1.3-8.9-3.8c-2-2.6-3.1-6-3.1-10.3m5.1 0c0 6.7 2.4 10.1 7.1 10.1 2.2 0 4-.9 5.2-2.7 1.3-1.8 1.9-4.3 1.9-7.4 0-6.6-2.4-10-7.1-10-2.2 0-3.9.9-5.2 2.7-1.3 1.7-1.9 4.2-1.9 7.3z"/><path d="m681.8 714.2v-15.6c0-2.8-.4-4.8-1.3-6-.9-1.1-2.3-1.7-4.3-1.7-1.1 0-2.2.3-3.4 1-1.2.6-2.1 1.4-2.7 2.4v19.9h-4.8v-26.8h3.3l1.5 3.4c1.6-2.6 4.1-4 7.7-4 5.9 0 8.8 3.6 8.8 10.7v16.6h-4.8z"/><path d="m707.7 711.1c-1.9 2.4-4.8 3.6-8.7 3.6-2.1 0-3.9-.8-5.5-2.3-1.5-1.5-2.3-3.4-2.3-5.7 0-2.7 1.2-5 3.6-6.9s5.4-2.8 9.1-2.8c1 0 2.1.2 3.4.7 0-4.3-1.9-6.5-5.8-6.5-3 0-5.3.8-6.9 2.4l-2-4c.9-.7 2.1-1.4 3.8-1.9 1.6-.5 3.1-.8 4.6-.8 3.9 0 6.7.9 8.5 2.7s2.6 4.6 2.6 8.4v9.6c0 2.4.7 3.9 2.1 4.7v2.4c-1.9 0-3.4-.3-4.4-.8-1-.6-1.6-1.5-2.1-2.8m-.4-10.1c-1.5-.3-2.6-.5-3.2-.5-2.4 0-4.4.6-5.9 1.9-1.5 1.2-2.3 2.7-2.3 4.4 0 2.8 1.6 4.2 4.9 4.2 2.4 0 4.5-1.1 6.4-3.4v-6.6z"/><path d="m719.2 706.6v-30.2h4.8v29.4c0 1.4.4 2.6 1.2 3.4s1.9 1.2 3.2 1.2v4.3c-6.1 0-9.2-2.7-9.2-8.1"/><path d="m769.2 714.2-2.5-7.7h-13.7l-2.7 7.7h-5.6l14.9-37.2h1.3l13.8 37.2zm-9.2-27.6-5.7 16.1h10.9z"/><path d="m782.4 677.2c.8 0 1.5.3 2.1.9s.9 1.3.9 2.1-.3 1.5-.9 2.1-1.3.9-2.1.9-1.5-.3-2.1-.9-.9-1.3-.9-2.1.3-1.5.9-2.1 1.3-.9 2.1-.9m-2.6 37v-22.8h-3.7v-4h8.4v26.8z"/><path d="m806 691.9c-1-.7-2.1-1.1-3.1-1.1-1.7 0-3.2.8-4.4 2.3-1.3 1.6-1.9 3.4-1.9 5.6v15.4h-4.8v-26.8h4.8v4.3c1.7-3.2 4.3-4.8 7.7-4.8.8 0 2.1.2 3.7.4z"/><path d="m815.4 712.7v12h-4.8v-37.3h4.8v2.2c1.8-1.8 4-2.7 6.5-2.7 3.8 0 6.8 1.2 8.9 3.6s3.2 5.8 3.2 10.4c0 4.1-1.1 7.4-3.2 10s-5.2 3.9-9.3 3.9c-1.1 0-2.4-.2-3.6-.6-1.3-.6-2.2-1-2.5-1.5m0-19.6v15.6c.3.4.9.9 1.9 1.3s1.9.6 2.8.6c5.9 0 8.8-3.3 8.8-10 0-3.4-.7-5.9-2.1-7.4-1.4-1.6-3.6-2.4-6.7-2.4-.7 0-1.5.2-2.4.7-1 .5-1.8 1-2.3 1.6z"/><path d="m836.7 700.7c0-4.1 1.1-7.5 3.3-10s5.2-3.8 8.8-3.8c3.8 0 6.8 1.2 9 3.7 2.1 2.5 3.2 5.8 3.2 10.2 0 4.3-1.1 7.7-3.3 10.2s-5.1 3.8-8.9 3.8-6.8-1.3-8.9-3.8c-2.1-2.6-3.2-6-3.2-10.3m5 0c0 6.7 2.4 10.1 7.1 10.1 2.2 0 4-.9 5.2-2.7 1.3-1.8 1.9-4.3 1.9-7.4 0-6.6-2.4-10-7.1-10-2.2 0-3.9.9-5.2 2.7-1.3 1.7-1.9 4.2-1.9 7.3z"/><path d="m879.8 691.9c-1-.7-2.1-1.1-3.1-1.1-1.7 0-3.2.8-4.4 2.3-1.3 1.6-1.9 3.4-1.9 5.6v15.4h-4.8v-26.8h4.8v4.3c1.7-3.2 4.3-4.8 7.7-4.8.9 0 2.1.2 3.7.4z"/><path d="m886.2 691.1h-3.1v-3.8h3.1v-5.6l4.8-1.8v7.4h7.4v3.8h-7.4v13.3c0 2.3.4 3.9 1.1 4.8.8.9 2 1.4 3.7 1.4 1.2 0 2.5-.3 3.8-.9l.7 4.2c-2 .5-4.1.8-6.5.8-2.1 0-3.9-.8-5.4-2.4s-2.2-3.6-2.2-6z"/><path d="m172.6 631.4c0 5.3-2 8.4-5.9 8.4h-11.3c-3.7 0-5.9-1.8-6.9-3.9l-6.9-17.1c-1.3-3.3-4.2-4.2-7.7-3.5-5.5 1-7.6 5.3-6.9 7.8.4 1.3-.2.5 6.5 16.8h-19.1c-5.6 0-9.2-5-9.2-10.4 0-5.9 3.9-9.6 6.7-11.4l-1.8-2.8c-3.7 1.5-9.4 6.3-9.4 14.2 0 9.7 7.3 14.4 13.7 14.4h25.6l-8-20.1c-.7-1.8-1-3.6 1.2-4.5 2-.8 3.2-.4 4.1 2.1l6.7 15.6c2.3 5.6 7.1 6.8 10 6.8h14.5c3.7 0 9-2.4 9-11.8v-28.1l-5 1.8v25.7zm-55.2 18.4c-1.6 0-2.8 1.3-2.8 2.8 0 1.6 1.1 2.9 2.7 2.9h.1c1.6 0 2.7-1.3 2.7-2.9s-1.1-2.8-2.7-2.8zm7.6 0c-1.6 0-2.8 1.3-2.8 2.8 0 1.6 1.1 2.9 2.7 2.9h.1c1.7 0 2.8-1.3 2.8-2.9s-1.2-2.8-2.8-2.8zm73.2-33.7c-8 0-12.8 6.4-12.8 14.6 0 8.1 5 13.7 13.3 13.7 2.1 0 3.9-.2 5.4-.5-.3 5.8-2.4 7.3-7.2 8l.6 3.9c8.4-.2 11.7-5.5 11.7-14.3v-12.6c.2-7.2-2.1-12.8-11-12.8zm6.2 23.9c-1.3.3-2.9.5-4.9.5-5 0-9.2-2.7-9.3-10.3-.2-5.8 2.4-10.7 7.7-10.7 5.1 0 6.6 4.3 6.6 7.5v13zm74.3-8.6c0 5.3-2 8.4-5.9 8.4h-28l-2.8-12.3c-1.5-6.6-5.5-11.4-12.5-11.4-3.2 0-6.2 1.3-8.1 2.6l.9 3.8c1.6-1.2 4.2-2.4 6.6-2.4 4.8 0 7.5 3.3 8.4 8l2.6 11.7h-23.1l-1.7 4h55.4 4.3c3.7 0 9-2.4 9-11.8v-28.1l-5 1.8v25.7zm9.8-25.7v38.1h5v-39.9z"/><path d="m339.5 648.4c-1.6 0-2.8 1.3-2.8 2.8 0 1.6 1.1 2.9 2.7 2.9h.1c1.6 0 2.7-1.3 2.7-2.9 0-1.5-1.1-2.8-2.7-2.8m7.7 0c-1.7 0-2.8 1.3-2.8 2.8 0 1.6 1.1 2.9 2.7 2.9 1.7 0 2.8-1.3 2.8-2.9 0-1.5-1.1-2.8-2.7-2.8z"/><path d="m373.6 613.9c1.7 0 2.8-1.3 2.8-2.9s-1.1-2.8-2.7-2.8-2.8 1.3-2.8 2.8c0 1.6 1.1 2.9 2.7 2.9m63.6-9.6v25.7c0 5.3-2 8.4-5.9 8.4h-5.2-23.8c-5.2 0-9.1-4-9.1-10.1 0-5.6 3.4-10.3 9.6-10.3 2.7 0 4.5.7 5.8 1.3l1.1-3.8c-1.3-.7-3.9-1.5-6.9-1.5-8.9 0-14.6 6.1-14.6 14.5 0 4 1.3 7.4 3.5 9.9h-5.7-3.4c-3.5-.1-6.3-3.2-6.3-6.2v-12l-4.9 1.8v16.7c.3 10.2-2.7 11.3-7.3 11.7l.6 3.9c8.2-.2 11.6-5 11.6-13.8v-1.9c1.8 2.3 4.3 3.8 8.1 3.8h1.6 39.8 7.3c3.7 0 9-2.4 9-11.8v-28.1z"/><path d="m315.2 612.4c1.7 0 2.8-1.3 2.8-2.9s-1.1-2.8-2.7-2.8-2.8 1.3-2.8 2.8c0 1.6 1.1 2.9 2.7 2.9m18.1 24.5h-5.7-3.4c-3.5-.1-6.3-3.2-6.3-6.2v-12l-4.9 1.8v16.6c.3 10.1-2.7 11.3-7.3 11.8l.6 3.9c8.2-.2 11.6-5 11.6-13.8v-1.9c1.8 2.3 4.3 3.8 8.1 3.8h1.6 14.2 12.4c3.7 0 9-2.4 9-11.8v-12.8l-5 1.8v10.4c0 5.3-1.9 8.4-5.9 8.4h-10.3 6.8"/><path d="m447 642.4v-38.1l5-1.8v39.9z"/><path d="m518.5 648.4c-1.6 0-2.8 1.3-2.8 2.8 0 1.6 1.2 2.9 2.7 2.9 1.7 0 2.8-1.3 2.8-2.9 0-1.5-1.1-2.8-2.7-2.8m43.9-10c-5.2 0-9.1-4-9.1-10.1 0-5.6 3.4-10.3 9.6-10.3 2.7 0 4.5.7 5.7 1.3l1.1-3.8c-1.4-.7-3.9-1.5-6.8-1.5-8.9 0-14.6 6.1-14.6 14.5 0 4 1.3 7.4 3.5 9.9h-4-20.3c-3.7-.1-6.4-3.4-6.3-6.9v-16.8l-4.9 1.7v14.6c0 4.3-1.9 7.4-5.6 7.4h-3.4-19.5l-2.8-12.3c-1.5-6.6-5.4-11.4-12.5-11.4-3.2 0-6.2 1.4-8.1 2.6l.9 3.8c1.6-1.2 4.2-2.4 6.6-2.4 4.8 0 7.5 3.3 8.4 8l2.6 11.7h-23.1l-1.7 4h33.5 21c3.7 0 6.5-2.3 7.7-5.4 1.9 3.3 4.8 5.4 9.1 5.4h19 21.2l1.9-4z"/><path d="m598.4 620.5h9.8l1.2-2.6h-4.1c-1.6 0-2.8-1.3-2.8-3.2 0-1.7 1-3.3 3-3.3 1 0 1.9.4 2.6.7l.7-2.4c-.7-.5-2-.8-3.3-.8-3.6 0-5.9 2.4-5.9 5.9 0 1.2.2 2.2.7 3.1h-3.1zm120.7 8.7c0 5.3-2 8.4-5.9 8.4h-3c-.4-8-5.1-13.1-12-13.1-6.5 0-11.1 4.8-12 12.1v1h-25.6c-3.8-.1-6.4-3.4-6.3-6.9v-29l-5 1.8v26.7c0 1.8-.4 3.5-1.1 4.7-.9 1.7-2.5 2.7-4.6 2.7-1.1 0-10.2.4-15.4-.1-1.7-.2-3.5-1.5-3.8-1.7-1.7-1.3-2.5-3-2.5-5.1v-27.2l-5 1.7v25c0 4.2-1.8 7.2-5.3 7.4h-17.1c-5.6 0-9.2-4.9-9.2-10.4 0-5.9 3.8-9.5 6.7-11.4l-1.8-2.7c-3.7 1.5-9.4 6.3-9.4 14.2 0 9.7 7.3 14.4 13.7 14.4h18.9c3.3 0 6.1-2.3 7.3-5.4.7 1.2 1.2 2.6 2.2 3.3 1.4 1 2.2 1.3 4.4 1.7 5.8.9 15.8.4 17.8.5h.1c2 0 3.6-.6 5-1.7 1.2-.9 2.1-2.2 2.7-3.7 1.7 2.9 4.1 4.9 7.6 5.4.5.1 21.4.1 21.9.1h3.5c.9 7 5.5 11.3 11.7 11.3 6 0 10.9-4.3 12-11.3h5c3.7 0 9-2.4 9-11.8v-28.1l-5 1.8v25.4zm-21 20c-4.8 0-7.3-5.1-7.3-10.4 0-5.5 2.6-10.6 7.3-10.6 4.8 0 7.1 5.3 7.1 10.3.1 5.2-2.2 10.7-7.1 10.7zm30.8-45.7v38.1h5v-39.9z"/><path d="m750.5 637.9c.3 10.2-2.7 11.3-7.3 11.8l.6 3.9c8.2-.3 11.6-5 11.6-13.8v-20.2l-4.9 1.8zm132.4-24.7c-8.3.1-12.3 7.2-12.3 14.3 0 3.7 1.1 7.4 3.2 10.1h-42c3.1-2.7 5-6.6 5-10.3 0-8.5-6.8-13.2-14.4-13.2-11.2 0-18.7 8.2-21.7 17.5l1.1-27.7-4.9 1.7v31.9h-26.2c-4 0-5.5-3.1-5.5-8.4v-27.5l-5 1.8v26.3c0 9.4 5.7 11.8 9.3 11.8h24.5 74.3 14.4c6.8 0 12.2-5.6 12.2-14.4 0-8.2-4.7-13.9-12-13.9zm-61.7 24.5h-19.2c2.3-9.8 9.1-19.4 20.4-19.4 7.5 0 9.2 6.4 9.3 9.1 0 4.4-3.9 10.3-10.5 10.3zm61.6.3c-4.8 0-7.3-5.1-7.3-10.3 0-5.5 2.6-10.7 7.3-10.7 4.8 0 7.1 5.3 7.1 10.4s-2.2 10.6-7.1 10.6z"/></g></g></svg>